<?xml version="1.0" encoding="UTF-8"?>
<svg width="1024" height="1024" viewBox="0 0 1024 1024" xmlns="http://www.w3.org/2000/svg">
  <defs>
    <radialGradient id="backgroundGradient" cx="50%" cy="30%" r="70%">
      <stop offset="0%" stop-color="#FCE4EC"/>
      <stop offset="40%" stop-color="#F8BBD9"/>
      <stop offset="70%" stop-color="#F06292"/>
      <stop offset="100%" stop-color="#E91E63"/>
    </radialGradient>
    <radialGradient id="iconGradient" cx="50%" cy="40%" r="60%">
      <stop offset="0%" stop-color="#FFFFFF" stop-opacity="0.9"/>
      <stop offset="30%" stop-color="#E1BEE7"/>
      <stop offset="70%" stop-color="#9C27B0"/>
      <stop offset="100%" stop-color="#6A1B9A"/>
    </radialGradient>
    <filter id="shadow" x="-20%" y="-20%" width="140%" height="140%">
      <feDropShadow dx="0" dy="8" stdDeviation="12" flood-color="#000000" flood-opacity="0.3"/>
    </filter>
  </defs>
  
  <!-- Background with rounded corners for iOS -->
  <rect x="0" y="0" width="1024" height="1024" rx="180" ry="180" fill="url(#backgroundGradient)"/>
  
  <!-- Main icon container -->
  <g transform="translate(512, 512)">
    <!-- Shadow circle -->
    <circle cx="0" cy="8" r="280" fill="#000000" opacity="0.1"/>
    
    <!-- Main circle background -->
    <circle cx="0" cy="0" r="280" fill="url(#iconGradient)" filter="url(#shadow)"/>
    
    <!-- Cycle symbol - stylized moon phases in circular arrangement -->
    <g transform="scale(3.5)">
      <!-- Full moon (top) -->
      <circle cx="0" cy="-35" r="20" fill="#FFFFFF" opacity="0.95"/>
      
      <!-- Waning phase (right) -->
      <g transform="rotate(90)">
        <circle cx="0" cy="-35" r="20" fill="#E91E63" opacity="0.8"/>
        <circle cx="-8" cy="-35" r="20" fill="#FFFFFF" opacity="0.3"/>
      </g>
      
      <!-- New moon (bottom) -->
      <circle cx="0" cy="35" r="20" fill="#6A1B9A" opacity="0.6"/>
      
      <!-- Waxing phase (left) -->
      <g transform="rotate(-90)">
        <circle cx="0" cy="-35" r="20" fill="#E91E63" opacity="0.8"/>
        <circle cx="8" cy="-35" r="20" fill="#FFFFFF" opacity="0.3"/>
      </g>
      
      <!-- Center connecting element -->
      <circle cx="0" cy="0" r="12" fill="#FFFFFF" opacity="0.1" stroke="#E91E63" stroke-width="2"/>
      
      <!-- Connecting orbital lines -->
      <circle cx="0" cy="0" r="35" fill="none" stroke="#FFFFFF" stroke-width="3" opacity="0.4" stroke-dasharray="8,4"/>
      
      <!-- Inner accent dots -->
      <circle cx="0" cy="-15" r="3" fill="#F06292"/>
      <circle cx="15" cy="0" r="3" fill="#F06292"/>
      <circle cx="0" cy="15" r="3" fill="#F06292"/>
      <circle cx="-15" cy="0" r="3" fill="#F06292"/>
    </g>
  </g>
  
  <!-- Subtle corner accents -->
  <circle cx="150" cy="150" r="8" fill="#FFFFFF" opacity="0.3"/>
  <circle cx="874" cy="150" r="6" fill="#FFFFFF" opacity="0.2"/>
  <circle cx="150" cy="874" r="6" fill="#FFFFFF" opacity="0.2"/>
  <circle cx="874" cy="874" r="8" fill="#FFFFFF" opacity="0.3"/>
</svg>
